<svg xmlns="http://www.w3.org/2000/svg" xml:space="preserve" width="64px" height="64px" viewBox="0 0 640 640" xmlns:xlink="http://www.w3.org/1999/xlink">
 <g id="Layer_x0020_1">
  <path fill="#6bbbff" d="M41.28 10.323l178.774 0 73.0521 82.4656 -177.912 0c-17.6105,0 -32.0201,14.4096 -32.0201,32.0201l0 401.403c0,17.5986 14.4096,32.0201 32.0201,32.0201l406.328 0c17.6105,0 32.0201,-14.4214 32.0201,-32.0201l0 -181.62 83.1743 69.1898 0 185.624c0,22.7011 -18.5672,41.28 -41.28,41.28l-554.156 0c-22.7129,0 -41.28,-18.579 -41.28,-41.28l0 -547.802c0,-22.7011 18.5672,-41.28 41.28,-41.28zm598.72 -11.008l-328.622 14.5277 104.801 104.801 -230.755 230.743 101.21 101.21 230.755 -230.755 106.82 106.82 15.7915 -327.347z"/>
 </g>
</svg>
